<?xml version="1.0" encoding="UTF-8"?>
<svg version="1.1" xmlns="http://www.w3.org/2000/svg" width="1024" height="768">
<path d="M0 0 C337.92 0 675.84 0 1024 0 C1024 253.44 1024 506.88 1024 768 C686.08 768 348.16 768 0 768 C0 514.56 0 261.12 0 0 Z " fill="#F9F9FA" transform="translate(0,0)"/>
<path d="M0 0 C6.32830766 3.4957127 12.02416457 8.2208291 17.6875 12.6875 C18.46641602 13.29762939 19.24533203 13.90775879 20.04785156 14.53637695 C22.3676342 16.35455288 24.68405007 18.17694607 27 20 C28.26150343 20.98985781 29.52320591 21.97946202 30.78515625 22.96875 C33.63062698 25.20060803 36.4731063 27.4362351 39.31445312 29.67333984 C42.20808823 31.95086203 45.10416552 34.22527541 48 36.5 C51.45427351 39.21338743 54.90816048 41.92725354 58.359375 44.64453125 C61.90299199 47.43384942 65.45076505 50.21783512 69 53 C69.74958984 53.58813477 70.49917969 54.17626953 71.27148438 54.78222656 C73.67910925 56.66973394 76.08926839 58.55396275 78.5 60.4375 C79.63066895 61.32465698 79.63066895 61.32465698 80.78417969 62.22973633 C84.75912551 65.32999861 88.76133853 68.27035567 93 71 C92.97381592 70.3294458 92.94763184 69.6588916 92.9206543 68.96801758 C92.81642762 65.91641872 92.75159377 62.86519458 92.6875 59.8125 C92.64560547 58.75740234 92.60371094 57.70230469 92.56054688 56.61523438 C92.54443359 55.59365234 92.52832031 54.57207031 92.51171875 53.51953125 C92.48553467 52.58214111 92.45935059 51.64475098 92.43237305 50.67895508 C93.25365685 46.80284876 94.87417698 45.36825514 98 43 C101.2421875 42.35302734 101.2421875 42.35302734 104.875 42.3359375 C106.18984375 42.32949219 107.5046875 42.32304687 108.859375 42.31640625 C109.53935547 42.32687988 110.21933594 42.33735352 110.91992188 42.34814453 C112.99534681 42.37493992 115.06536676 42.34837113 117.140625 42.31640625 C119.11289062 42.32607422 119.11289062 42.32607422 121.125 42.3359375 C122.32382812 42.34157715 123.52265625 42.3472168 124.7578125 42.35302734 C128 43 128 43 130.91625977 44.76953125 C134.15871374 49.79637965 133.45475677 54.51250929 133.21484375 60.3515625 C133.17769293 62.83720145 133.14327472 65.32288247 133.11132812 67.80859375 C133.03509973 71.71413453 132.93785765 75.61547667 132.79125977 79.51904297 C131.46290767 94.67119376 131.46290767 94.67119376 136.94189453 108.03222656 C139.76952557 110.4974343 142.7976507 112.3042212 146.14051819 113.98275757 C149.38888335 115.75979828 152.1510355 118.15375583 155 120.5 C156.15292284 121.4114217 157.30763575 122.32058775 158.46484375 123.2265625 C159.04089355 123.6793457 159.61694336 124.13212891 160.21044922 124.59863281 C162.07468905 126.05848774 163.94493415 127.51036827 165.81640625 128.9609375 C166.75709961 129.69280273 166.75709961 129.69280273 167.71679688 130.43945312 C168.90733501 131.36542723 170.0999 132.28880406 171.29492188 133.20898438 C182.59735868 142.01764509 182.59735868 142.01764509 183.3359375 147.48828125 C183.4194929 153.52933652 183.29631658 157.38145968 179 162 C174.26300282 166.62784978 170.186725 168.6594953 163.58984375 169.28515625 C156.56235976 168.51139104 151.43557899 164.36413166 146.0625 160.125 C145.32523682 159.55273682 144.58797363 158.98047363 143.82836914 158.39086914 C138.13264936 153.94885157 132.53405328 149.38990109 126.95141602 144.80712891 C121.74838245 140.55492622 116.40566245 136.52192516 111.00634766 132.52368164 C105.47463396 128.40638042 100.1248434 124.09136191 94.79345703 119.71923828 C89.67398937 115.52669022 84.46674275 111.47153362 79.20703125 107.45703125 C74.01569089 103.4920672 68.89670434 99.43412666 63.76611328 95.39111328 C61.42835011 93.54972891 59.08830399 91.71126001 56.74804688 89.87304688 C54.99712423 88.49774115 53.24660958 87.12191723 51.49609375 85.74609375 C49.17719876 83.92396622 46.85677485 82.10381206 44.53515625 80.28515625 C37.86520503 75.05735665 31.22761102 69.79177202 24.61669922 64.48950195 C19.75146771 60.59111981 14.85589733 56.73284548 9.94873047 52.88745117 C4.93843801 48.95904122 -0.03845239 44.98981594 -5 41 C-9.19654779 42.75815468 -12.45106349 45.64689499 -15.9375 48.5 C-17.28825946 49.59344068 -18.63983574 50.68587302 -19.9921875 51.77734375 C-21.00490723 52.59501221 -21.00490723 52.59501221 -22.03808594 53.42919922 C-24.84944469 55.68010541 -27.70043318 57.87664795 -30.5625 60.0625 C-35.06893055 63.50782135 -39.54522912 66.98811572 -44 70.5 C-48.47805824 74.02919668 -52.9746975 77.53158702 -57.5 81 C-61.91894962 84.38779464 -66.31327858 87.80464562 -70.6875 91.25 C-78.32750306 97.26741398 -86.00560128 103.23535481 -93.68554688 109.20166016 C-97.45815634 112.13299363 -101.22900355 115.06659198 -105 118 C-106.49999123 119.16667794 -107.99999124 120.3333446 -109.5 121.5 C-110.2425 122.0775 -110.985 122.655 -111.75 123.25 C-120 129.66666667 -128.25 136.08333333 -136.5 142.5 C-137.24354736 143.0784668 -137.98709473 143.65693359 -138.75317383 144.25292969 C-140.24199784 145.41059834 -141.73141151 146.5675091 -143.22143555 147.72363281 C-147.14778837 150.77177346 -151.06076987 153.83533519 -154.95703125 156.921875 C-155.76978516 157.56253906 -156.58253906 158.20320312 -157.41992188 158.86328125 C-158.97582578 160.09022261 -160.52812246 161.32175703 -162.07617188 162.55859375 C-167.41690774 166.75873249 -171.73376625 169.57973725 -178.81640625 169.37890625 C-184.44171922 168.4027786 -189.29849278 165.14186711 -193 160.875 C-196.04414258 156.49904504 -196.77167219 152.2455336 -196 147 C-194.06729765 142.14264543 -191.68273124 139.49183353 -187.625 136.25 C-187.09825684 135.82517334 -186.57151367 135.40034668 -186.02880859 134.96264648 C-184.36334727 133.62737627 -182.6846866 132.31090898 -181 131 C-180.47019531 130.5870166 -179.94039063 130.1740332 -179.39453125 129.74853516 C-176.71744906 127.6688389 -174.02822116 125.60562706 -171.33203125 123.55078125 C-167.96666785 120.98260742 -164.63684149 118.37095078 -161.3125 115.75 C-155.89138887 111.47875198 -150.45050829 107.23366665 -145 103 C-137.31198784 97.02691252 -129.64878681 91.0231957 -122 85 C-113.5823096 78.37131523 -105.14239362 71.77238628 -96.68164062 65.19873047 C-90.33216972 60.26341069 -84.00408164 55.30149252 -77.68554688 50.32666016 C-74.20576922 47.58779692 -70.72265688 44.8531747 -67.24023438 42.11767578 C-64.37265935 39.86492288 -61.50577046 37.61131111 -58.640625 35.35546875 C-49.1240367 27.86477067 -39.58947722 20.39724417 -30 13 C-29.24734863 12.41911621 -28.49469727 11.83823242 -27.71923828 11.23974609 C-25.54742836 9.56923201 -23.36888464 7.90798425 -21.1875 6.25 C-20.21031006 5.49795288 -20.21031006 5.49795288 -19.21337891 4.73071289 C-12.7901525 -0.11835882 -7.98158004 -2.0790785 0 0 Z " fill="#047CD8" transform="translate(519,178)"/>
<path d="M0 0 C80.91832669 0 80.91832669 0 102 19 C102.64582031 19.56460937 103.29164063 20.12921875 103.95703125 20.7109375 C114.32757923 30.33589052 119.67423172 43.63825477 120.3739624 57.60635376 C120.50268117 61.11250481 120.54282194 64.61675507 120.5625 68.125 C120.5712616 68.80314758 120.58002319 69.48129517 120.58905029 70.17999268 C120.74176109 87.44360916 116.07064967 103.2146035 104.1328125 116.0625 C75.19131249 142.3536795 38.01459055 136 0 136 C0 91.12 0 46.24 0 0 Z " fill="#047CD7" transform="translate(291,478)"/>
<path d="M0 0 C2.99681945 1.22319161 4.3546836 2.01223186 6.10414124 4.69007874 C7.30229139 7.77944129 7.2594551 10.39567302 7.27124023 13.70874023 C7.27646698 14.37428925 7.28169373 15.03983826 7.28707886 15.72555542 C7.29729721 17.16655058 7.30309548 18.60758242 7.30496025 20.04861259 C7.30863044 22.33141604 7.32537415 24.61378759 7.34571838 26.89649963 C7.40107044 33.38510096 7.43181285 39.87376536 7.45629883 46.36254883 C7.47219299 50.33545809 7.50242963 54.3080597 7.54106331 58.2808094 C7.55269541 59.79220369 7.5586435 61.30365304 7.55874443 62.81509209 C7.55893697 64.93100905 7.577237 67.04608001 7.59936523 69.16186523 C7.60443588 70.36447495 7.60950653 71.56708466 7.61473083 72.80613708 C8.04266165 76.35366303 8.80245307 78.2003034 11 81 C13.80483931 82.70180787 15.89940071 83.25112665 19.16113091 83.26006222 C19.98747626 83.26712781 20.81382162 83.2741934 21.66520774 83.2814731 C22.56772746 83.27905802 23.47024717 83.27664293 24.40011597 83.27415466 C25.84446996 83.28200968 25.84446996 83.28200968 27.31800282 83.29002339 C30.55302666 83.30505675 33.7878928 83.30572927 37.02294922 83.30639648 C39.33890043 83.31401567 41.65484911 83.32244275 43.97079468 83.33161926 C50.26828536 83.35359366 56.56572747 83.36236702 62.86325216 83.36744571 C66.79578448 83.37108551 70.728304 83.37732357 74.66083145 83.3844471 C85.55034911 83.40390444 96.43985374 83.42041669 107.32938957 83.42332363 C108.02609597 83.4235112 108.72280237 83.42369877 109.44062109 83.42389202 C110.852988 83.42425827 112.26535492 83.42462197 113.67772184 83.42498314 C114.72936135 83.42525735 114.72936135 83.42525735 115.80224609 83.42553711 C116.50419531 83.42571766 117.20614453 83.42589821 117.92936493 83.42608423 C129.30622874 83.42962671 140.68290336 83.45665463 152.05970155 83.494035 C163.74193865 83.53211165 175.42407277 83.5510399 187.10637295 83.55178314 C193.66489645 83.55257727 200.22317586 83.56137874 206.78164291 83.58978081 C212.94916347 83.61589212 219.11623634 83.61820512 225.28378677 83.60212517 C227.54853539 83.60030522 229.81330935 83.60705027 232.07800293 83.62294388 C235.16784148 83.64330792 238.25609942 83.63290869 241.34591675 83.61473083 C242.69300415 83.63453079 242.69300415 83.63453079 244.06730545 83.65473074 C248.31300768 83.59760487 251.14514519 83.33179675 254.5408802 80.64907932 C258.26270768 76.63975199 258.12394351 73.68883414 258.12597656 68.40478516 C258.1278447 67.73938217 258.12971283 67.07397919 258.13163757 66.38841248 C258.13563795 64.94465141 258.13771608 63.50088402 258.13809967 62.05711746 C258.14151944 58.98574429 258.16288602 55.91458201 258.18333054 52.8432827 C258.2213334 47.12628751 258.2526144 41.4095188 258.25048828 35.69238281 C258.24970085 31.71397286 258.27307544 27.73633693 258.3123703 23.75812912 C258.32282606 22.24394588 258.32435736 20.72967325 258.31671906 19.21547318 C258.30708522 17.09413292 258.32829474 14.97513289 258.35644531 12.85400391 C258.36009094 11.64837799 258.36373657 10.44275208 258.36749268 9.20059204 C259.17784027 5.10009871 260.82342855 3.62273983 264 1 C267.68387707 -0.84193854 271.97006153 -0.36231308 276 0 C278.9375 1.3125 278.9375 1.3125 281 3 C281.52920547 3.38405502 282.05841095 3.76811005 282.60365295 4.1638031 C284.77082264 7.01363207 284.38930426 9.53021914 284.40405273 13.06665039 C284.41434761 14.14048981 284.41434761 14.14048981 284.42485046 15.23602295 C284.44317317 17.60676848 284.43927015 19.97685494 284.43359375 22.34765625 C284.43815615 24.00093297 284.4434619 25.65420779 284.44947815 27.30747986 C284.45842235 30.77855103 284.45597511 34.24939237 284.44604492 37.72045898 C284.43461092 42.14653122 284.45467346 46.571799 284.48396206 50.99776554 C284.50241466 54.41669178 284.50201271 57.83542902 284.49632454 61.25439262 C284.49617212 62.88450681 284.5021503 64.51463447 284.51461601 66.144701 C284.59841465 78.91067286 283.04563814 89.3325996 274 99 C266.86639566 105.59097396 258.70740856 110.11430458 248.78757286 110.13142776 C247.53085465 110.13718948 247.53085465 110.13718948 246.24874818 110.1430676 C245.33339316 110.14220112 244.41803813 110.14133463 243.47494507 110.14044189 C242.49853046 110.14341302 241.52211585 110.14638414 240.51611292 110.1494453 C237.23517994 110.1581361 233.95428343 110.15964088 230.67333984 110.16113281 C228.32447227 110.16576077 225.97560545 110.1707854 223.6267395 110.17617798 C217.2380792 110.18930744 210.84942942 110.19574819 204.46075773 110.20018864 C200.46923525 110.20311891 196.47771565 110.20722367 192.48619461 110.21169281 C181.42854909 110.22388552 170.3709055 110.23418408 159.3132534 110.2375679 C158.25189751 110.23789725 158.25189751 110.23789725 157.16910008 110.23823325 C156.1052393 110.23856067 156.1052393 110.23856067 155.01988637 110.2388947 C153.58275628 110.23933816 152.14562619 110.23978473 150.70849609 110.24023438 C149.99563366 110.2404558 149.28277122 110.24067723 148.5483069 110.24090537 C137.00607138 110.24485054 125.46389911 110.26229595 113.92168801 110.2855939 C102.06316044 110.30933645 90.20466456 110.32177111 78.34611285 110.32293582 C71.69139779 110.32385107 65.0367555 110.32988584 58.382061 110.34775543 C52.11940987 110.36424467 45.85691484 110.36638734 39.59424973 110.35761642 C37.29893577 110.35684647 35.00361339 110.3611832 32.70832062 110.37107468 C29.56768111 110.38381244 26.42759295 110.37790706 23.28695679 110.36749268 C22.38498609 110.37554908 21.48301539 110.38360548 20.55371225 110.39190602 C9.3946974 110.30574348 0.18111865 106.79021786 -7.9765625 99.1484375 C-15.1567698 91.47936502 -18.08947416 83.20893097 -18.19287109 72.83227539 C-18.20104858 72.11795853 -18.20922607 71.40364166 -18.21765137 70.66767883 C-18.24240347 68.31101301 -18.25899157 65.95440684 -18.2734375 63.59765625 C-18.27876118 62.79115568 -18.28408485 61.98465511 -18.28956985 61.15371513 C-18.3162521 56.88804959 -18.33564607 52.62241287 -18.35009766 48.35668945 C-18.36345641 44.82875758 -18.39135073 41.30140144 -18.43212891 37.77368164 C-18.48141873 33.50907103 -18.50621315 29.24498393 -18.51332474 24.98010063 C-18.52003831 23.3569714 -18.53526335 21.73385391 -18.55921555 20.11088753 C-18.59084267 17.83901091 -18.59090941 15.56915815 -18.58349609 13.29711914 C-18.59158295 12.00568497 -18.5996698 10.71425079 -18.60800171 9.38368225 C-17.84393585 5.1314638 -16.30224282 3.6872161 -13 1 C-9.07713554 -0.96143223 -4.28670656 -0.34690111 0 0 Z " fill="#047CD7" transform="translate(380,345)"/>
<path d="M0 0 C1.29067383 -0.0309375 1.29067383 -0.0309375 2.60742188 -0.0625 C10.9389489 -0.11272774 18.06030452 1.37072528 24.3125 7.1875 C25.055 7.85652344 25.7975 8.52554688 26.5625 9.21484375 C28.35535407 11.29983698 28.92772937 12.5626176 29.3125 15.25 C29.9725 15.25 30.6325 15.25 31.3125 15.25 C31.55226563 14.6621875 31.79203125 14.074375 32.0390625 13.46875 C35.84833933 6.83172779 44.71669111 3.02301444 51.76953125 0.90625 C63.80853116 -1.32368604 77.42825389 -1.24848519 88.0625 5.375 C95.78165218 11.51026954 98.72882789 19.79594013 100.3125 29.25 C100.70017081 34.88488032 100.68850842 40.4912908 100.640625 46.13671875 C100.6375602 47.73142823 100.63568957 49.32614041 100.63494873 50.92085266 C100.63038258 54.2346956 100.61608821 57.54829049 100.59375 60.86206055 C100.56521485 65.11697948 100.55450909 69.37170626 100.5500679 73.62671185 C100.54592511 76.90625433 100.53612138 80.18575785 100.52419281 83.46528053 C100.51848847 85.03583274 100.5137303 86.60638868 100.50992584 88.17694664 C100.50309067 90.35720916 100.48947839 92.53731604 100.47363281 94.7175293 C100.46339081 96.57851509 100.46339081 96.57851509 100.45294189 98.47709656 C100.3125 101.25 100.3125 101.25 99.3125 102.25 C97.38582493 102.33748207 95.45598139 102.35697334 93.52734375 102.34765625 C91.77260742 102.34282227 91.77260742 102.34282227 89.98242188 102.33789062 C88.75072266 102.32951172 87.51902344 102.32113281 86.25 102.3125 C84.39665039 102.30573242 84.39665039 102.30573242 82.50585938 102.29882812 C79.44135883 102.28699608 76.37695279 102.27051173 73.3125 102.25 C73.30663376 101.43647064 73.30076752 100.62294128 73.29472351 99.78475952 C73.23673384 92.10459591 73.16462155 84.42475439 73.07678509 76.74487877 C73.03212556 72.79689972 72.99285996 68.84902282 72.96606445 64.90087891 C72.93998701 61.08813174 72.89955389 57.27577855 72.84931374 53.46327591 C72.8326749 52.01133768 72.82114206 50.55933134 72.81488609 49.10731125 C72.80521195 47.06770629 72.77711634 45.02910243 72.74487305 42.98974609 C72.73376999 41.83058685 72.72266693 40.67142761 72.71122742 39.47714233 C72.26404434 35.85781905 71.04528894 33.43067194 69.3125 30.25 C69.3125 29.59 69.3125 28.93 69.3125 28.25 C68.2296875 27.816875 68.2296875 27.816875 67.125 27.375 C64.3125 26.25 64.3125 26.25 62.125 25.125 C57.08826079 23.55801447 51.93019694 23.1438688 46.9921875 25.23046875 C41.54830742 28.49478799 38.46196688 31.67672871 36.7427063 37.90289307 C35.75789086 43.27582029 35.96897127 48.79718252 35.93359375 54.2421875 C35.91739914 55.59743424 35.90021711 56.95266951 35.88209534 58.30789185 C35.83664844 61.85508945 35.80170682 65.4023027 35.76989746 68.949646 C35.71777514 74.64808665 35.65300273 80.34636039 35.58168221 86.04459 C35.55882036 88.03495848 35.54285676 90.0254023 35.52696228 92.01583862 C35.51347244 93.21443512 35.4999826 94.41303162 35.48608398 95.64794922 C35.47181618 97.23843582 35.47181618 97.23843582 35.45726013 98.86105347 C35.3125 101.25 35.3125 101.25 34.3125 102.25 C32.47090977 102.34959621 30.62553033 102.38080411 28.78125 102.3828125 C27.66105469 102.38410156 26.54085937 102.38539063 25.38671875 102.38671875 C24.20722656 102.38285156 23.02773438 102.37898437 21.8125 102.375 C20.04326172 102.38080078 20.04326172 102.38080078 18.23828125 102.38671875 C17.11808594 102.38542969 15.99789062 102.38414062 14.84375 102.3828125 C13.80798828 102.38168457 12.77222656 102.38055664 11.70507812 102.37939453 C9.3125 102.25 9.3125 102.25 8.3125 101.25 C8.20452529 99.25719466 8.16621267 97.26058821 8.15478516 95.26489258 C8.14452301 93.98298538 8.13426086 92.70107819 8.12368774 91.38032532 C8.12024982 90.69049372 8.1168119 90.00066212 8.11326981 89.28992653 C8.1015006 87.13318753 8.08205045 84.97665059 8.06015015 82.81999207 C7.99848699 76.68629736 7.94458702 70.55261954 7.91113281 64.41870117 C7.89013289 60.66966279 7.85478002 56.92098635 7.81037521 53.17215538 C7.7962485 51.74533044 7.7875003 50.31844139 7.78432083 48.89155006 C7.77938734 46.88831461 7.75457588 44.88515838 7.72900391 42.88208008 C7.72091705 41.74370193 7.7128302 40.60532379 7.70449829 39.43244934 C7.1006707 34.53025779 5.42425756 31.27837575 1.8125 27.9375 C-3.56763988 24.30590558 -9.41802886 24.79328356 -15.6875 25.25 C-20.46584904 26.87122557 -23.0031975 28.99214086 -25.6875 33.25 C-29.11023263 40.6534903 -29.14300414 47.96626852 -29.1640625 56 C-29.18785916 57.97719937 -29.21166011 59.9543987 -29.2357235 61.93159485 C-29.26552001 64.67430491 -29.28209319 67.4170347 -29.29876709 70.15985107 C-29.33053146 74.99438806 -29.38128689 79.82875133 -29.43515015 84.66308594 C-29.46243972 87.23268977 -29.48376339 89.80236491 -29.49868774 92.37207031 C-29.51408096 94.10021973 -29.51408096 94.10021973 -29.52978516 95.86328125 C-29.53628082 96.88204346 -29.54277649 97.90080566 -29.54946899 98.95043945 C-29.6875 101.25 -29.6875 101.25 -30.6875 102.25 C-32.52909023 102.34959621 -34.37446967 102.38080411 -36.21875 102.3828125 C-37.33894531 102.38410156 -38.45914063 102.38539063 -39.61328125 102.38671875 C-40.79277344 102.38285156 -41.97226562 102.37898437 -43.1875 102.375 C-44.95673828 102.38080078 -44.95673828 102.38080078 -46.76171875 102.38671875 C-47.88191406 102.38542969 -49.00210938 102.38414062 -50.15625 102.3828125 C-51.19201172 102.38168457 -52.22777344 102.38055664 -53.29492188 102.37939453 C-55.6875 102.25 -55.6875 102.25 -56.6875 101.25 C-56.78282328 98.17545239 -56.8130138 95.12340842 -56.80102539 92.04858398 C-56.80117142 91.08283447 -56.80131744 90.11708496 -56.8014679 89.12207031 C-56.80076834 85.91338901 -56.79297397 82.70476497 -56.78515625 79.49609375 C-56.78329222 77.27791882 -56.78186825 75.05974348 -56.78086853 72.84156799 C-56.77704216 66.99059929 -56.76721086 61.13965523 -56.75616455 55.28869629 C-56.74595299 49.32332696 -56.74137146 43.35795367 -56.73632812 37.39257812 C-56.72558869 25.67837456 -56.70851085 13.96418933 -56.6875 2.25 C-52.37501391 2.22113463 -48.06255238 2.20324745 -43.75 2.1875 C-42.51830078 2.17912109 -41.28660156 2.17074219 -40.01757812 2.16210938 C-38.84775391 2.15888672 -37.67792969 2.15566406 -36.47265625 2.15234375 C-34.84662476 2.14448853 -34.84662476 2.14448853 -33.18774414 2.13647461 C-30.6875 2.25 -30.6875 2.25 -29.6875 3.25 C-29.45557135 4.76469448 -29.27534762 6.28754562 -29.125 7.8125 C-28.99931641 9.05193359 -28.99931641 9.05193359 -28.87109375 10.31640625 C-28.81050781 10.95449219 -28.74992188 11.59257813 -28.6875 12.25 C-28.275 11.79109375 -27.8625 11.3321875 -27.4375 10.859375 C-19.28738775 2.19988074 -11.57726367 0.06785209 0 0 Z " fill="#057CD7" transform="translate(681.6875,511.75)"/>
<path d="M0 0 C9.93402671 7.13055905 15.76579521 17.42079228 18.19165039 29.43164062 C18.81951625 33.66746968 18.88681045 37.86461438 18.859375 42.140625 C18.85373535 43.06343262 18.8480957 43.98624023 18.84228516 44.93701172 C18.59259579 59.00119788 14.68419593 70.60208812 5.046875 81.078125 C-5.59814084 91.16118676 -18.75673965 95.23908153 -33.203125 95.140625 C-34.07638428 95.13498535 -34.94964355 95.1293457 -35.84936523 95.12353516 C-50.2658487 94.85491329 -62.88350047 90.82639561 -73.60546875 80.875 C-79.04424768 74.84979882 -83.27271273 67.65918315 -85.453125 59.828125 C-85.75863281 58.78011719 -85.75863281 58.78011719 -86.0703125 57.7109375 C-89.78863226 42.58297903 -88.23036106 25.96052555 -80.29296875 12.4921875 C-72.59826087 1.35038118 -61.8267614 -5.75529253 -48.61376953 -8.80566406 C-32.03935037 -11.61488765 -14.19716797 -9.13223237 0 0 Z " fill="#057CD7" transform="translate(513.453125,521.171875)"/>
<path d="M0 0 C40.32919255 0 40.32919255 0 52.02734375 10.88671875 C60.43115691 19.93014559 63.38928536 29.99398494 63.3125 42.1875 C63.30404053 43.58307129 63.30404053 43.58307129 63.29541016 45.00683594 C63.06181676 58.27771619 60.05809633 68.31207322 50.4375 77.75 C36.20619459 89.58648225 17.21967424 87 0 87 C0 58.29 0 29.58 0 0 Z " fill="#F8F9F9" transform="translate(319,503)"/>
<path d="M0 0 C1 1 1 1 1.11352539 3.40844727 C1.10828857 4.45057373 1.10305176 5.4927002 1.09765625 6.56640625 C1.09443359 7.69111328 1.09121094 8.81582031 1.08789062 9.97460938 C1.07532227 11.75061523 1.07532227 11.75061523 1.0625 13.5625 C1.05798828 14.75037109 1.05347656 15.93824219 1.04882812 17.16210938 C1.03699675 20.10812226 1.02051287 23.05403681 1 26 C0.22817383 25.83991455 -0.54365234 25.6798291 -1.33886719 25.51489258 C-9.58269469 23.9198254 -16.79256497 24.57361566 -24 29 C-30.08095689 33.72963313 -32.72712627 40.57018426 -34 48 C-34.10977578 49.83955155 -34.17511609 51.68208169 -34.20532227 53.5246582 C-34.22526749 54.60540115 -34.24521271 55.6861441 -34.26576233 56.79963684 C-34.28247482 57.9550145 -34.29918732 59.11039215 -34.31640625 60.30078125 C-34.33718735 61.49229294 -34.35796844 62.68380463 -34.37937927 63.91142273 C-34.44468179 67.71172403 -34.50367018 71.51209352 -34.5625 75.3125 C-34.60570356 77.89128305 -34.64931844 80.47005924 -34.69335938 83.04882812 C-34.80111618 89.36581659 -34.90033378 95.68285797 -35 102 C-43.91 102 -52.82 102 -62 102 C-62 69 -62 36 -62 2 C-53.42 2 -44.84 2 -36 2 C-35.67 6.29 -35.34 10.58 -35 15 C-33.9275 13.63875 -32.855 12.2775 -31.75 10.875 C-22.75554444 0.90391354 -12.89736165 -1.3459598 0 0 Z " fill="#047BD7" transform="translate(610,512)"/>
<path d="M0 0 C8.25 0 16.5 0 25 0 C27.66283842 2.66283842 27.2409776 4.64532495 27.25994873 8.26655579 C27.25151947 9.58589363 27.25151947 9.58589363 27.24291992 10.93188477 C27.24481827 11.85715973 27.24671661 12.78243469 27.24867249 13.73574829 C27.25238733 16.80438622 27.24166673 19.87278924 27.23046875 22.94140625 C27.22927733 25.06607536 27.22882371 27.190745 27.2290802 29.31541443 C27.22751415 33.7717518 27.21921466 38.22800897 27.20581055 42.68432617 C27.18881024 48.41027516 27.18499642 54.13613601 27.18575573 59.86210728 C27.18548445 64.2499832 27.18001014 68.63783968 27.17275429 73.02570915 C27.16956157 75.13773387 27.16759881 77.2497608 27.16686058 79.3617878 C27.16470396 82.30706706 27.15597481 85.25225085 27.14526367 88.19750977 C27.14594345 89.51988396 27.14594345 89.51988396 27.14663696 90.86897278 C27.11447405 96.88552595 27.11447405 96.88552595 26 98 C17.42 98 8.84 98 0 98 C0 65.66 0 33.32 0 0 Z " fill="#087DD8" transform="translate(241,516)"/>
<path d="M0 0 C6.01527546 4.63583259 8.97220208 10.36925434 10.828125 17.6640625 C12.00056603 27.86655412 10.99015698 37.50849715 5.015625 46.0390625 C0.03821181 52.11984315 -5.49078219 54.74280421 -13.1953125 55.9921875 C-20.41564214 56.56564328 -26.259872 53.58855452 -32.171875 49.6640625 C-38.89052676 43.73584036 -40.52737266 35.42479943 -41.48828125 26.8359375 C-41.86292938 18.37614109 -39.67305171 10.45552937 -34.421875 3.7265625 C-25.27332706 -5.95603773 -11.05736103 -6.80147027 0 0 Z " fill="#F6F8F9" transform="translate(494.171875,538.3359375)"/>
<path d="M0 0 C2.03942086 -0.01721337 4.07721976 -0.06110234 6.11621094 -0.10522461 C8.0459375 -0.11779297 8.0459375 -0.11779297 10.01464844 -0.13061523 C11.78654541 -0.15248901 11.78654541 -0.15248901 13.59423828 -0.17480469 C16.67871094 0.29516602 16.67871094 0.29516602 19.06420898 1.89379883 C21.2283873 5.11273999 21.18068763 7.27977568 21.17480469 11.14282227 C21.17625992 11.7959288 21.17771515 12.44903534 21.17921448 13.12193298 C21.17755947 14.49783811 21.16604246 15.87376251 21.14526367 17.24951172 C21.11625152 19.35472142 21.12467066 21.45741956 21.13769531 23.56274414 C21.13145891 24.90194907 21.12306872 26.24114607 21.11230469 27.58032227 C21.10255615 28.79598877 21.09280762 30.01165527 21.08276367 31.26416016 C20.67871094 34.29516602 20.67871094 34.29516602 19.60083008 36.18994141 C16.59838756 37.91635539 13.92736992 37.68469935 10.49121094 37.69360352 C9.79229736 37.69647369 9.09338379 37.69934387 8.37329102 37.70230103 C6.89728992 37.70434027 5.42126172 37.69882004 3.9453125 37.6862793 C1.68655956 37.67022181 -0.57040424 37.68613072 -2.82910156 37.70532227 C-4.26400134 37.70333981 -5.69890001 37.69949607 -7.13378906 37.69360352 C-8.43960937 37.69021973 -9.74542969 37.68683594 -11.09082031 37.68334961 C-14.32128906 37.29516602 -14.32128906 37.29516602 -16.24560547 36.19213867 C-17.88027819 33.30938629 -17.71060504 30.83933863 -17.71972656 27.54516602 C-17.72259674 26.89064453 -17.72546692 26.23612305 -17.72842407 25.56176758 C-17.73046274 24.17992282 -17.72494652 22.79804909 -17.71240234 21.41625977 C-17.69634342 19.30232151 -17.71225507 17.19029488 -17.73144531 15.07641602 C-17.72946284 13.7326618 -17.72561908 12.38890877 -17.71972656 11.04516602 C-17.71634277 9.82313477 -17.71295898 8.60110352 -17.70947266 7.34204102 C-17.32128906 4.29516602 -17.32128906 4.29516602 -15.92138672 2.43579102 C-11.22202312 -0.91413678 -5.57201758 0.0328002 0 0 Z " fill="#087DD8" transform="translate(487.3212890625,344.704833984375)"/>
<path d="M0 0 C1.91619141 -0.00580078 1.91619141 -0.00580078 3.87109375 -0.01171875 C4.53351074 -0.00543457 5.19592773 0.00084961 5.87841797 0.00732422 C7.90010089 0.02338864 9.91978513 0.00745985 11.94140625 -0.01171875 C13.85759766 -0.00591797 13.85759766 -0.00591797 15.8125 0 C16.98103516 0.00338379 18.14957031 0.00676758 19.35351562 0.01025391 C22.7697697 0.44466241 24.17626482 0.76657745 26.40625 3.3984375 C26.90795898 6.53710938 26.90795898 6.53710938 26.90234375 10.3671875 C26.90379898 11.04390503 26.90525421 11.72062256 26.90675354 12.41784668 C26.90509555 13.84680492 26.89354506 15.27578119 26.87280273 16.70458984 C26.84384755 18.89107148 26.85219259 21.07512792 26.86523438 23.26171875 C26.85899659 24.65105344 26.85060532 26.04038048 26.83984375 27.4296875 C26.83009521 28.69361328 26.82034668 29.95753906 26.81030273 31.25976562 C26.40625 34.3984375 26.40625 34.3984375 25.31469727 36.30908203 C22.37237029 37.9885835 19.80196807 37.78786763 16.4375 37.796875 C15.76078247 37.79974518 15.08406494 37.80261536 14.38684082 37.80557251 C12.95791791 37.80761147 11.52896698 37.80209319 10.10009766 37.78955078 C7.91375275 37.77349261 5.72925621 37.78940284 3.54296875 37.80859375 C2.15364176 37.80661129 0.76431591 37.80276754 -0.625 37.796875 C-1.88892578 37.79349121 -3.15285156 37.79010742 -4.45507812 37.78662109 C-7.59375 37.3984375 -7.59375 37.3984375 -9.50219727 36.30908203 C-11.18237587 33.36811184 -11.00139422 30.79411932 -11.02734375 27.4296875 C-11.0325856 26.75296997 -11.03782745 26.07625244 -11.04322815 25.37902832 C-11.04964358 23.95012788 -11.04831744 22.52117459 -11.03979492 21.09228516 C-11.03127798 18.90562042 -11.06005633 16.72156324 -11.09179688 14.53515625 C-11.09340887 13.14583412 -11.09283138 11.75650736 -11.08984375 10.3671875 C-11.09169678 9.10326172 -11.0935498 7.83933594 -11.09545898 6.53710938 C-10.59375 3.3984375 -10.59375 3.3984375 -8.97485352 1.48779297 C-5.85683691 0.06129957 -3.42782359 0.00992613 0 0 Z " fill="#067CD8" transform="translate(530.59375,344.6015625)"/>
<path d="M0 0 C1.08734436 -0.00855011 1.08734436 -0.00855011 2.19665527 -0.01727295 C3.72988424 -0.02672103 5.26313349 -0.03325617 6.79638672 -0.03710938 C9.14716677 -0.04683741 11.49708065 -0.0778699 13.84765625 -0.109375 C15.3359323 -0.11590288 16.82421461 -0.12115419 18.3125 -0.125 C19.01773804 -0.1373468 19.72297607 -0.1496936 20.44958496 -0.16241455 C22.43164062 -0.15332031 22.43164062 -0.15332031 25.65625 0.203125 C28.82230486 4.95220728 27.99010215 10.06798096 27.97192383 15.65478516 C27.96876076 17.69617954 27.99224127 19.73612819 28.01757812 21.77734375 C28.01822266 23.06253906 28.01886719 24.34773438 28.01953125 25.671875 C28.02251221 26.85201172 28.02549316 28.03214844 28.02856445 29.24804688 C27.65625 32.203125 27.65625 32.203125 26.58496094 34.08862305 C23.56873768 35.83154193 20.88841124 35.57425473 17.43359375 35.56640625 C16.7323085 35.56690475 16.03102325 35.56740326 15.30848694 35.56791687 C13.82826906 35.5655792 12.34804699 35.55586863 10.86791992 35.53930664 C8.59843565 35.51567379 6.33012324 35.51875228 4.06054688 35.52539062 C-7.06461566 35.48225934 -7.06461566 35.48225934 -9.34375 33.203125 C-9.51863254 30.76567603 -9.57552405 28.4437642 -9.5390625 26.0078125 C-9.5362326 25.30036896 -9.53340271 24.59292542 -9.53048706 23.86404419 C-9.51928137 21.6018999 -9.49417679 19.34014985 -9.46875 17.078125 C-9.45872067 15.54557863 -9.44959474 14.01302606 -9.44140625 12.48046875 C-9.41934086 8.72120199 -9.38480896 4.96223036 -9.34375 1.203125 C-6.35474603 -0.29137698 -3.27917181 0.01976082 0 0 Z " fill="#047AD7" transform="translate(480.34375,297.796875)"/>
<path d="M0 0 C0.70523804 0.00404846 1.41047607 0.00809692 2.13708496 0.01226807 C2.8619812 0.01035461 3.58687744 0.00844116 4.33374023 0.00646973 C5.86698758 0.0051082 7.40024646 0.00880243 8.93347168 0.01715088 C11.28415755 0.02785129 13.63407919 0.01725498 15.98474121 0.00445557 C17.47302415 0.00577717 18.96130662 0.00833957 20.44958496 0.01226807 C21.154823 0.0082196 21.86006104 0.00417114 22.58666992 0 C27.56341011 0.04796821 27.56341011 0.04796821 29.79333496 2.27789307 C30.19196992 6.53531445 30.12236038 10.80736881 30.10900879 15.08135986 C30.10585185 17.20403513 30.12929257 19.32531243 30.15466309 21.44781494 C30.15693642 22.79612047 30.15763942 24.14442976 30.15661621 25.49273682 C30.15959717 26.72113281 30.16257812 27.94952881 30.16564941 29.21514893 C29.79333496 32.27789307 29.79333496 32.27789307 28.70617676 34.17706299 C25.76261782 35.87106519 23.19717271 35.66730146 19.82458496 35.67633057 C19.14786743 35.67920074 18.4711499 35.68207092 17.77392578 35.68502808 C16.34500287 35.68706704 14.91605194 35.68154875 13.48718262 35.66900635 C11.30083771 35.65294817 9.11634117 35.66885841 6.93005371 35.68804932 C5.54072672 35.68606685 4.15140087 35.68222311 2.76208496 35.67633057 C1.49815918 35.67294678 0.2342334 35.66956299 -1.06799316 35.66607666 C-4.20666504 35.27789307 -4.20666504 35.27789307 -6.11950684 34.17706299 C-7.77605042 31.2832268 -7.57798539 28.80549915 -7.56994629 25.49273682 C-7.57044479 24.83584366 -7.5709433 24.1789505 -7.57145691 23.50215149 C-7.56911992 22.11608855 -7.55941329 20.73002108 -7.54284668 19.34405518 C-7.51920965 17.21940323 -7.52229312 15.09600284 -7.52893066 12.97125244 C-7.47553827 0.07205283 -7.47553827 0.07205283 0 0 Z " fill="#037AD7" transform="translate(527.2066650390625,297.72210693359375)"/>
<path d="M0 0 C4.10557604 2.64581567 7.24385169 5.10655508 8.8125 9.8125 C9.33103818 14.7513636 9.36449525 18.66604834 7.1875 23.1875 C3.85148254 26.8746772 1.31302628 29.44233146 -3.7734375 30.1953125 C-10.10954063 30.4557003 -14.19925204 29.78273818 -19.1875 25.8125 C-22.81565338 21.64444284 -23.85966157 17.41884895 -23.5625 11.94921875 C-22.65319916 6.76809834 -19.56328257 3.84503969 -15.4375 0.9375 C-10.10301542 -2.13627365 -5.83536676 -2.17396017 0 0 Z " fill="#057BD7" transform="translate(261.1875,477.1875)"/>
<path d="M0 0 C1.32 0 2.64 0 4 0 C4 8.25 4 16.5 4 25 C3.01 24.67 2.02 24.34 1 24 C1.14176421 21.29139876 1.28828216 18.58319248 1.4375 15.875 C1.49647461 14.73417969 1.49647461 14.73417969 1.55664062 13.5703125 C1.79509002 9.31490797 2.20230237 5.19629174 3 1 C2.01 0.67 1.02 0.34 0 0 Z " fill="#086ED2" transform="translate(607,513)"/>
<path d="M0 0 C7.10899654 2.32838214 11.26655852 8.16345939 15.0625 14.375 C16 17 16 17 15 20 C14.69707031 19.41992188 14.39414062 18.83984375 14.08203125 18.2421875 C9.88964561 9.70413866 9.88964561 9.70413866 2.6875 4.125 C2.130625 4.08375 1.57375 4.0425 1 4 C0.67 2.68 0.34 1.36 0 0 Z " fill="#0D6FD4" transform="translate(512,522)"/>
<path d="M0 0 C3.93243082 5.89864623 5.44895473 11.96637582 5 19 C4.67 19 4.34 19 4 19 C2.86235649 14.73383684 2 11.43513689 2 7 C1.34 7 0.68 7 0 7 C0 4.69 0 2.38 0 0 Z " fill="#116FD4" transform="translate(405,514)"/>
<path d="M0 0 C0.66 0.33 1.32 0.66 2 1 C1.278125 1.556875 0.55625 2.11375 -0.1875 2.6875 C-2.97457299 4.97909334 -5.48641528 7.41459857 -8 10 C-8.99 9.67 -9.98 9.34 -11 9 C-7.37 6.03 -3.74 3.06 0 0 Z " fill="#086FD5" transform="translate(383,274)"/>
<path d="M0 0 C1.65 0 3.3 0 5 0 C3.87994369 3.36016893 2.62788203 4.69064913 0 7 C-0.66 7 -1.32 7 -2 7 C-2.33 6.01 -2.66 5.02 -3 4 C-2.01 3.67 -1.02 3.34 0 3 C0 2.01 0 1.02 0 0 Z " fill="#EDF5F9" transform="translate(713,520)"/>
<path d="M0 0 C-0.49230769 6.4 -0.49230769 6.4 -3.0625 9.4375 C-3.701875 9.953125 -4.34125 10.46875 -5 11 C-4.71890887 9.35232753 -4.42481474 7.70686855 -4.125 6.0625 C-3.96257812 5.14597656 -3.80015625 4.22945312 -3.6328125 3.28515625 C-3.42398437 2.53105469 -3.21515625 1.77695312 -3 1 C-1 0 -1 0 0 0 Z " fill="#ECF5F9" transform="translate(413,561)"/>
<path d="M0 0 C0.66 0 1.32 0 2 0 C2 0.66 2 1.32 2 2 C2.99 2.33 3.98 2.66 5 3 C4.01 3.495 4.01 3.495 3 4 C3.33 7.63 3.66 11.26 4 15 C3.01 15.33 2.02 15.66 1 16 C1.01160156 15.18015625 1.02320313 14.3603125 1.03515625 13.515625 C1.04869141 11.89914062 1.04869141 11.89914062 1.0625 10.25 C1.07410156 9.18265625 1.08570313 8.1153125 1.09765625 7.015625 C1.01510087 4.46631499 0.74617558 2.42066409 0 0 Z " fill="#D9EDF6" transform="translate(268,483)"/>
<path d="M0 0 C0 0.66 0 1.32 0 2 C-3.63 3.32 -7.26 4.64 -11 6 C-11 5.34 -11 4.68 -11 4 C-10.34 4 -9.68 4 -9 4 C-9 3.34 -9 2.68 -9 2 C-8.21625 1.855625 -7.4325 1.71125 -6.625 1.5625 C-4.19936192 1.04272041 -2.45184765 0 0 0 Z " fill="#E8F4F9" transform="translate(365,582)"/>
</svg>
